<mxfile host="app.diagrams.net" modified="2020-05-02T18:00:31.993Z" agent="5.0 (Macintosh; Intel Mac OS X 10_15_2) AppleWebKit/605.1.15 (KHTML, like Gecko) Version/13.0.4 Safari/605.1.15" etag="e7YsVznF23wLrF7JhRst" version="12.9.11" type="github">
  <diagram id="yKpRXpLceIQQkGZ7jGWy" name="Page-1">
    <mxGraphModel dx="2646" dy="639" grid="1" gridSize="10" guides="1" tooltips="1" connect="1" arrows="1" fold="1" page="1" pageScale="1" pageWidth="850" pageHeight="1100" math="0" shadow="0">
      <root>
        <mxCell id="0" />
        <mxCell id="1" parent="0" />
        <mxCell id="xoDHUSfcxuXFxR3dn9HK-1" value="Financial Domain" style="rounded=1;whiteSpace=wrap;html=1;" parent="1" vertex="1">
          <mxGeometry x="-820" y="60" width="120" height="80" as="geometry" />
        </mxCell>
        <mxCell id="xoDHUSfcxuXFxR3dn9HK-2" value="AWS" style="rounded=1;whiteSpace=wrap;html=1;" parent="1" vertex="1">
          <mxGeometry x="-50" y="70" width="120" height="80" as="geometry" />
        </mxCell>
        <mxCell id="xoDHUSfcxuXFxR3dn9HK-3" value="Kafka" style="rounded=1;whiteSpace=wrap;html=1;" parent="1" vertex="1">
          <mxGeometry x="425" y="70" width="120" height="80" as="geometry" />
        </mxCell>
        <mxCell id="xoDHUSfcxuXFxR3dn9HK-6" style="edgeStyle=orthogonalEdgeStyle;rounded=0;orthogonalLoop=1;jettySize=auto;html=1;entryX=0.5;entryY=0;entryDx=0;entryDy=0;" parent="1" source="xoDHUSfcxuXFxR3dn9HK-4" target="xoDHUSfcxuXFxR3dn9HK-5" edge="1">
          <mxGeometry relative="1" as="geometry" />
        </mxCell>
        <mxCell id="xoDHUSfcxuXFxR3dn9HK-8" style="edgeStyle=orthogonalEdgeStyle;rounded=0;orthogonalLoop=1;jettySize=auto;html=1;exitX=0.75;exitY=1;exitDx=0;exitDy=0;entryX=0.5;entryY=0;entryDx=0;entryDy=0;" parent="1" source="xoDHUSfcxuXFxR3dn9HK-4" target="xoDHUSfcxuXFxR3dn9HK-7" edge="1">
          <mxGeometry relative="1" as="geometry" />
        </mxCell>
        <mxCell id="xoDHUSfcxuXFxR3dn9HK-4" value="Cloud patterns&lt;br&gt;&amp;amp; their implementation till you understand deeper aspects" style="rounded=1;whiteSpace=wrap;html=1;" parent="1" vertex="1">
          <mxGeometry x="820" y="70" width="120" height="80" as="geometry" />
        </mxCell>
        <mxCell id="xoDHUSfcxuXFxR3dn9HK-5" value="Event Store" style="rounded=1;whiteSpace=wrap;html=1;" parent="1" vertex="1">
          <mxGeometry x="800" y="200" width="120" height="40" as="geometry" />
        </mxCell>
        <mxCell id="xoDHUSfcxuXFxR3dn9HK-7" value="Circuit Breaker" style="rounded=1;whiteSpace=wrap;html=1;" parent="1" vertex="1">
          <mxGeometry x="960" y="200" width="120" height="40" as="geometry" />
        </mxCell>
        <mxCell id="xoDHUSfcxuXFxR3dn9HK-9" value="AVRO" style="rounded=1;whiteSpace=wrap;html=1;" parent="1" vertex="1">
          <mxGeometry x="350" y="200" width="120" height="40" as="geometry" />
        </mxCell>
        <mxCell id="xoDHUSfcxuXFxR3dn9HK-10" value="Plain Kafka" style="rounded=1;whiteSpace=wrap;html=1;" parent="1" vertex="1">
          <mxGeometry x="500" y="200" width="120" height="40" as="geometry" />
        </mxCell>
        <mxCell id="xoDHUSfcxuXFxR3dn9HK-11" value="Kafka Connect" style="rounded=1;whiteSpace=wrap;html=1;" parent="1" vertex="1">
          <mxGeometry x="500" y="270" width="120" height="40" as="geometry" />
        </mxCell>
        <mxCell id="xoDHUSfcxuXFxR3dn9HK-12" value="KStream" style="rounded=1;whiteSpace=wrap;html=1;" parent="1" vertex="1">
          <mxGeometry x="350" y="270" width="120" height="40" as="geometry" />
        </mxCell>
        <mxCell id="xoDHUSfcxuXFxR3dn9HK-13" value="KTable/KSQL" style="rounded=1;whiteSpace=wrap;html=1;" parent="1" vertex="1">
          <mxGeometry x="500" y="340" width="120" height="40" as="geometry" />
        </mxCell>
        <mxCell id="xoDHUSfcxuXFxR3dn9HK-14" value="Security" style="rounded=1;whiteSpace=wrap;html=1;" parent="1" vertex="1">
          <mxGeometry x="350" y="340" width="120" height="40" as="geometry" />
        </mxCell>
        <mxCell id="xoDHUSfcxuXFxR3dn9HK-15" value="Accounting&amp;nbsp;" style="rounded=1;whiteSpace=wrap;html=1;" parent="1" vertex="1">
          <mxGeometry x="-710" y="180" width="120" height="40" as="geometry" />
        </mxCell>
        <mxCell id="xoDHUSfcxuXFxR3dn9HK-16" value="Java" style="rounded=1;whiteSpace=wrap;html=1;" parent="1" vertex="1">
          <mxGeometry x="-1240" y="440" width="120" height="80" as="geometry" />
        </mxCell>
        <mxCell id="xoDHUSfcxuXFxR3dn9HK-17" value="Spring&amp;nbsp;" style="rounded=1;whiteSpace=wrap;html=1;" parent="1" vertex="1">
          <mxGeometry x="-960" y="440" width="120" height="80" as="geometry" />
        </mxCell>
        <mxCell id="xoDHUSfcxuXFxR3dn9HK-18" value="Basic concepts" style="rounded=1;whiteSpace=wrap;html=1;" parent="1" vertex="1">
          <mxGeometry x="-870" y="180" width="120" height="40" as="geometry" />
        </mxCell>
        <mxCell id="xoDHUSfcxuXFxR3dn9HK-19" value="Certification" style="rounded=1;whiteSpace=wrap;html=1;" parent="1" vertex="1">
          <mxGeometry x="-150" y="170" width="120" height="40" as="geometry" />
        </mxCell>
        <mxCell id="xoDHUSfcxuXFxR3dn9HK-20" value="Database" style="rounded=1;whiteSpace=wrap;html=1;" parent="1" vertex="1">
          <mxGeometry x="-700" y="440" width="120" height="80" as="geometry" />
        </mxCell>
        <mxCell id="xoDHUSfcxuXFxR3dn9HK-21" value="Big Data" style="rounded=1;whiteSpace=wrap;html=1;" parent="1" vertex="1">
          <mxGeometry x="1520" y="460" width="120" height="80" as="geometry" />
        </mxCell>
        <mxCell id="xoDHUSfcxuXFxR3dn9HK-22" value="Reactive&amp;nbsp;" style="rounded=1;whiteSpace=wrap;html=1;" parent="1" vertex="1">
          <mxGeometry x="-1340" y="540" width="120" height="40" as="geometry" />
        </mxCell>
        <mxCell id="xoDHUSfcxuXFxR3dn9HK-23" value="Lambdas" style="rounded=1;whiteSpace=wrap;html=1;" parent="1" vertex="1">
          <mxGeometry x="-1160" y="540" width="120" height="40" as="geometry" />
        </mxCell>
        <mxCell id="xoDHUSfcxuXFxR3dn9HK-24" value="AI/ML" style="rounded=1;whiteSpace=wrap;html=1;" parent="1" vertex="1">
          <mxGeometry x="1740" y="460" width="120" height="80" as="geometry" />
        </mxCell>
        <mxCell id="xoDHUSfcxuXFxR3dn9HK-25" value="IOT" style="rounded=1;whiteSpace=wrap;html=1;" parent="1" vertex="1">
          <mxGeometry x="1960" y="460" width="120" height="80" as="geometry" />
        </mxCell>
        <mxCell id="xoDHUSfcxuXFxR3dn9HK-26" value="Block Chain" style="rounded=1;whiteSpace=wrap;html=1;" parent="1" vertex="1">
          <mxGeometry x="2180" y="460" width="120" height="80" as="geometry" />
        </mxCell>
        <mxCell id="xoDHUSfcxuXFxR3dn9HK-29" value="" style="line;strokeWidth=4;direction=south;html=1;perimeter=backbonePerimeter;points=[];outlineConnect=0;" parent="1" vertex="1">
          <mxGeometry x="-1400" y="100" width="10" height="540" as="geometry" />
        </mxCell>
        <mxCell id="xoDHUSfcxuXFxR3dn9HK-30" value="" style="shape=crossbar;whiteSpace=wrap;html=1;rounded=1;" parent="1" vertex="1">
          <mxGeometry x="-1620" y="340" width="910" height="20" as="geometry" />
        </mxCell>
        <mxCell id="xoDHUSfcxuXFxR3dn9HK-31" value="Business Domain" style="text;strokeColor=none;fillColor=none;html=1;fontSize=24;fontStyle=1;verticalAlign=middle;align=center;" parent="1" vertex="1">
          <mxGeometry x="-1570" y="210" width="100" height="40" as="geometry" />
        </mxCell>
        <mxCell id="xoDHUSfcxuXFxR3dn9HK-32" value="Technology Domain" style="text;strokeColor=none;fillColor=none;html=1;fontSize=24;fontStyle=1;verticalAlign=middle;align=center;" parent="1" vertex="1">
          <mxGeometry x="-1580" y="460" width="100" height="40" as="geometry" />
        </mxCell>
        <mxCell id="xoDHUSfcxuXFxR3dn9HK-33" value="Commerce" style="rounded=1;whiteSpace=wrap;html=1;" parent="1" vertex="1">
          <mxGeometry x="-1090" y="60" width="120" height="80" as="geometry" />
        </mxCell>
        <mxCell id="xoDHUSfcxuXFxR3dn9HK-34" value="Telecom/Publishing/&lt;br&gt;Media" style="rounded=1;whiteSpace=wrap;html=1;" parent="1" vertex="1">
          <mxGeometry x="-1275" y="60" width="120" height="80" as="geometry" />
        </mxCell>
      </root>
    </mxGraphModel>
  </diagram>
</mxfile>
